<?xml version="1.0" standalone="no"?>
<!DOCTYPE svg PUBLIC "-//W3C//DTD SVG 20010904//EN"
 "http://www.w3.org/TR/2001/REC-SVG-20010904/DTD/svg10.dtd">
<svg version="1.0" xmlns="http://www.w3.org/2000/svg"
 width="1536.000000pt" height="1024.000000pt" viewBox="0 0 1536.000000 1024.000000"
 preserveAspectRatio="xMidYMid meet">

<g transform="translate(0.000000,1024.000000) scale(0.100000,-0.100000)"
fill="#000000" stroke="none">
<path d="M3214 6021 c-66 -41 -64 -22 -64 -488 0 -262 4 -424 10 -428 5 -3 85
65 176 151 174 163 215 190 302 201 69 8 128 -12 179 -61 41 -38 45 -47 52
-103 9 -74 -2 -277 -29 -538 -11 -107 -16 -193 -11 -198 5 -5 17 -7 27 -5 18
3 132 148 232 293 95 137 357 522 436 640 45 65 100 138 123 161 103 105 300
95 367 -18 31 -53 33 -100 8 -150 -22 -43 -284 -370 -447 -558 -151 -174 -351
-376 -440 -445 -206 -158 -413 -190 -514 -80 -25 27 -42 58 -47 81 -4 21 -1
163 5 317 8 191 9 283 2 290 -7 7 -77 -54 -220 -194 l-209 -204 -1 -308 c-1
-356 0 -361 73 -396 45 -22 52 -23 353 -19 275 4 318 7 406 27 109 25 289 94
384 147 81 45 284 180 349 232 71 56 318 266 406 344 40 36 117 105 171 152
l97 88 0 504 0 504 -34 38 -34 37 -1039 3 c-1008 2 -1039 2 -1069 -17z m2107
-14 c18 -12 39 -34 46 -47 10 -19 13 -142 13 -509 l0 -485 -48 -45 c-50 -49
-319 -287 -437 -387 -294 -250 -529 -400 -756 -485 -178 -65 -316 -82 -639
-77 -214 3 -249 5 -278 21 -59 32 -62 52 -61 384 l2 298 204 200 205 200 -7
-296 c-5 -216 -4 -307 4 -332 16 -48 89 -114 136 -123 21 -4 73 -4 117 -1 68
4 94 12 171 50 107 51 173 102 315 241 181 176 645 721 721 846 43 71 20 174
-50 229 -41 32 -131 52 -187 41 -123 -23 -147 -45 -299 -268 -145 -215 -450
-655 -522 -754 -74 -104 -118 -154 -127 -145 -4 4 3 119 16 255 27 284 31 469
12 524 -16 45 -76 101 -127 118 -53 18 -160 8 -213 -19 -24 -12 -113 -88 -198
-169 -85 -81 -159 -148 -165 -150 -5 -2 -9 154 -9 411 l0 415 27 32 c14 18 36
36 47 40 12 5 478 9 1037 9 l1016 1 34 -23z"/>
<path d="M5837 5893 c-3 -5 1 -26 8 -48 7 -22 54 -166 105 -320 50 -154 141
-432 202 -617 l111 -338 109 0 c59 0 108 2 108 5 0 3 24 83 54 177 30 95 78
252 106 348 28 96 62 208 74 248 l23 72 45 -142 c25 -79 86 -269 135 -423 l89
-280 126 -3 c114 -2 127 -1 131 15 3 10 19 63 35 118 17 55 49 163 72 240 23
77 52 176 65 220 14 44 37 125 53 180 16 55 58 195 92 312 35 116 60 218 57
227 -5 13 -26 16 -130 16 -88 0 -128 -4 -135 -12 -8 -10 -137 -494 -220 -825
-9 -35 -18 -63 -21 -63 -3 0 -25 64 -49 143 -23 78 -81 268 -128 422 -47 154
-89 291 -93 305 -7 24 -10 25 -112 28 -57 1 -109 -1 -115 -5 -5 -5 -22 -48
-36 -98 -14 -49 -53 -182 -86 -295 -32 -113 -74 -259 -92 -325 -18 -66 -36
-124 -40 -128 -4 -5 -16 27 -27 70 -35 134 -213 745 -224 764 -9 17 -23 19
-149 19 -76 0 -141 -3 -143 -7z m302 -80 c21 -70 203 -703 225 -783 l13 -44
16 49 c9 28 48 160 86 295 38 135 89 313 114 395 l44 150 104 3 104 2 104
-342 c57 -189 120 -398 140 -465 20 -68 38 -123 41 -123 6 0 88 304 184 680
l63 245 127 3 c118 2 127 1 122 -15 -2 -10 -37 -126 -76 -258 -39 -132 -84
-285 -100 -340 -16 -55 -68 -232 -116 -392 l-88 -293 -115 0 -116 0 -11 43
c-11 41 -263 840 -267 844 -1 1 -28 -87 -60 -195 -32 -108 -93 -308 -135 -444
l-77 -248 -96 0 -95 0 -209 638 c-115 350 -210 643 -213 650 -3 9 27 12 132
12 l135 0 20 -67z"/>
<path d="M8553 5893 c-10 -4 -13 -146 -13 -664 l0 -659 130 0 130 0 0 634 c0
348 -3 648 -6 665 l-6 31 -112 -1 c-61 0 -117 -3 -123 -6z m227 -663 l0 -650
-115 0 -115 0 0 650 0 650 115 0 115 0 0 -650z"/>
<path d="M8943 5893 c-10 -4 -13 -146 -13 -664 l0 -659 130 0 130 0 0 665 0
665 -117 -1 c-65 0 -124 -3 -130 -6z m237 -663 l0 -650 -120 0 -120 0 0 650 0
650 120 0 120 0 0 -650z"/>
<path d="M9742 5887 c-10 -12 -267 -690 -382 -1007 -21 -58 -54 -146 -74 -197
-20 -51 -36 -97 -36 -103 0 -7 47 -10 143 -8 l142 3 51 150 51 150 239 0 238
0 51 -140 c28 -77 54 -146 58 -152 6 -9 46 -13 143 -13 148 0 147 0 119 62
-13 30 -63 164 -319 858 -48 129 -102 273 -120 320 l-32 85 -131 3 c-100 2
-133 -1 -141 -11z m281 -49 c9 -24 52 -142 97 -263 45 -121 101 -274 125 -340
23 -66 48 -131 54 -145 6 -14 46 -122 90 -240 44 -118 84 -227 90 -242 l11
-28 -128 0 -128 0 -54 155 -54 155 -250 -2 -250 -3 -52 -150 -52 -150 -131 -3
-131 -3 11 28 c19 51 335 895 394 1053 31 85 63 170 71 188 l13 32 130 0 129
0 15 -42z"/>
<path d="M9857 5587 c-3 -12 -41 -127 -86 -256 -45 -129 -80 -236 -78 -238 2
-2 85 -2 184 -1 l180 3 -88 239 c-49 131 -89 245 -89 252 0 23 -18 24 -23 1z
m93 -244 c43 -115 81 -216 85 -225 7 -17 -5 -18 -159 -18 -91 0 -166 4 -166 8
0 4 20 64 43 133 24 68 59 168 77 222 17 54 35 96 38 93 3 -3 40 -99 82 -213z"/>
<path d="M11270 5646 l0 -125 -57 -3 -58 -3 -3 -97 -3 -98 61 0 60 0 0 -227
c0 -249 9 -310 54 -387 29 -50 92 -98 158 -122 55 -20 276 -23 287 -5 6 9 7
141 2 194 -1 4 -35 6 -76 5 -61 -2 -79 1 -102 18 -58 42 -63 68 -63 306 l0
217 108 3 107 3 3 93 c2 69 0 93 -10 94 -7 1 -56 2 -108 3 l-95 0 -5 125 -5
125 -127 3 -128 3 0 -125z m240 -18 l0 -128 115 0 116 0 -3 -82 -3 -83 -113
-3 -114 -3 4 -222 c3 -198 5 -226 23 -261 32 -64 63 -80 150 -80 l75 0 0 -87
c0 -101 3 -99 -120 -99 -137 0 -245 43 -295 118 -51 77 -55 105 -55 378 l0
254 -65 0 -65 0 0 85 0 84 63 3 62 3 -3 117 c-2 65 -1 121 1 125 3 4 55 8 116
8 l111 0 0 -127z"/>
<path d="M11015 5536 c-67 -17 -103 -37 -145 -82 l-35 -38 45 35 c25 20 59 43
75 51 44 23 145 42 157 30 5 -5 8 -51 6 -103 l-3 -94 -72 -6 c-96 -7 -158 -44
-193 -114 -25 -49 -25 -53 -28 -342 l-3 -293 -115 0 -114 0 0 460 0 460 104 0
c58 0 107 -4 110 -9 3 -5 7 -29 7 -55 1 -25 6 -46 11 -46 5 0 8 26 6 58 l-3
57 -122 3 -123 3 0 -471 0 -470 125 0 125 0 0 268 c0 285 7 342 52 405 31 43
93 70 176 75 l72 5 0 113 0 114 -32 -1 c-18 0 -55 -6 -83 -13z"/>
<path d="M7878 5510 c-140 -24 -277 -147 -290 -260 l-3 -25 99 -3 99 -3 29 35
c90 109 303 74 332 -55 l6 -26 -119 -6 c-216 -11 -320 -40 -399 -112 -122
-109 -125 -310 -7 -414 65 -56 117 -74 231 -79 123 -5 189 11 257 63 l47 36 0
-46 0 -45 115 0 116 0 -3 338 -3 337 -26 56 c-37 78 -87 130 -162 168 -89 45
-204 60 -319 41z m306 -50 c78 -39 128 -91 165 -169 l26 -56 3 -327 3 -328
-105 0 -106 0 0 58 0 59 -42 -40 c-73 -68 -116 -82 -248 -81 -129 0 -176 14
-244 75 -61 53 -81 101 -81 194 0 94 20 140 86 199 80 73 174 99 403 112 132
8 136 12 93 89 -59 106 -265 116 -336 16 -22 -31 -23 -31 -112 -31 -99 0 -100
1 -73 66 24 57 67 108 124 144 80 51 120 60 256 57 116 -3 125 -5 188 -37z"/>
<path d="M7913 4980 c-114 -23 -170 -100 -132 -182 21 -47 58 -63 139 -63 63
1 83 5 125 28 69 39 106 92 112 167 l6 60 -104 -1 c-57 -1 -123 -5 -146 -9z
m237 -33 c0 -126 -151 -230 -286 -196 -105 27 -110 144 -9 197 31 15 149 29
242 28 51 -1 53 -2 53 -29z"/>
</g>
</svg>
